<svg id="sail.me" xmlns="http://www.w3.org/2000/svg" viewBox="0 0 966 287.99939">
  <defs>
    <style>
      .cls-1 {
        fill: #fff;
      }
    </style>
  </defs>
  <title>logo_white</title>
  <path class="cls-1" d="M275.99708,237.53918c-20.71778,0-31.68565,8.79666-40.50557,15.86983-.246.198-.474.378-.714.57a108.54641,108.54641,0,0,0,16.49983-57.41339,12.00041,12.00041,0,0,0-11.99987-11.99987H167.75822c19.6738-13.70985,47.39351-41.05682,47.39351-86.35035,0-68.71727-63.80933-96.14973-66.5273-97.283a12.00371,12.00371,0,0,0-16.62582,11.06989V184.40973c0,.04875.018.096.018.14475H48.71948a12.00425,12.00425,0,0,0-11.99987,11.99987,108.46589,108.46589,0,0,0,16.52983,57.43739c-.252-.19875-.486-.38474-.744-.588-8.81391-7.06793-19.78779-15.86458-40.50557-15.86458a11.99987,11.99987,0,1,0,0,23.99975c12.28187,0,17.82581,4.4467,25.49373,10.59589,8.81391,7.06868,19.78779,15.86458,40.50557,15.86458A61.72194,61.72194,0,0,0,91.499,286.57666a.07609.07609,0,0,0,.036-.006c12.39587-2.77122,20.12979-8.97591,26.95171-14.4471,7.65592-6.14469,13.19387-10.59064,25.45773-10.59064,12.32987,0,17.87982,4.446,25.57174,10.60864,6.56393,5.25594,14.00985,11.15388,25.58372,14.0451a11.90843,11.90843,0,0,0,2.868.61874,61.46164,61.46164,0,0,0,12.02988,1.194c20.71778,0,31.68565-8.79591,40.50557-15.87058,7.66792-6.14994,13.21186-10.59589,25.49373-10.59589a11.99687,11.99687,0,1,0,0-23.99374M155.99835,32.89334C171.16019,43.97523,191.146,64.897,191.146,98.20864s-19.98579,54.22818-35.14763,65.31007ZM143.93848,237.53918c-20.69977,0-31.66766,8.79666-40.47557,15.86983-4.22395,3.39071-7.79392,6.25193-12.18587,8.14266a84.40115,84.40115,0,0,1-29.69969-52.99144H226.4196a84.48058,84.48058,0,0,1-29.66369,52.99744c-4.416-1.878-8.00391-4.75195-12.24586-8.14866C175.67815,246.34183,164.68626,237.53918,143.93848,237.53918Z"/>
  <path class="cls-1" d="M39.99558,104.93533A12.00041,12.00041,0,0,0,51.99545,116.9352h52.46944a11.99988,11.99988,0,0,0,0-23.99976H51.99545a12.00042,12.00042,0,0,0-11.99988,11.99988"/>
  <path class="cls-1" d="M104.46489,131.689H65.13531a11.99987,11.99987,0,0,0,0,23.99975h39.32958a11.99987,11.99987,0,0,0,0-23.99975"/>
  <path class="cls-1" d="M104.46489,76.24363a11.99987,11.99987,0,0,0,0-23.99975H78.28117a11.99987,11.99987,0,0,0,0,23.99975h26.18372"/>
  <path class="cls-1" d="M962.57515,184.78022a15.50123,15.50123,0,0,1,3.00959,9.9148q0,8.43869-8.09445,12.867a79.78757,79.78757,0,0,1-16.707,6.012,73.37286,73.37286,0,0,1-17.7461,2.42569q-17.02041,0-29.67863-6.53953a46.04953,46.04953,0,0,1-19.50993-18.77348Q867,178.45581,867,161.99944a58.78212,58.78212,0,0,1,6.53724-27.9492,47.50194,47.50194,0,0,1,18.26416-19.195,51.46137,51.46137,0,0,1,26.46242-6.85554q14.32025,0,25.11385,6.328a42.838,42.838,0,0,1,16.707,17.92992Q966.0005,143.86081,966,159.46824q0,4.85471-2.17908,7.4886a7.73807,7.73807,0,0,1-6.33062,2.63671H902.69781q1.44986,10.125,6.43444,14.55464,4.98,4.42832,14.7355,4.42934a37.01964,37.01964,0,0,0,9.54683-1.1606,92.18078,92.18078,0,0,0,9.75547-3.26874q3.1129-1.26611,6.122-2.21518a18.42816,18.42816,0,0,1,5.50011-.94907A9.48275,9.48275,0,0,1,962.57515,184.78022Zm-54.8963-46.72217q-4.35866,4.74638-5.18867,13.81659H935.0756q-1.24576-18.55913-15.77364-18.56246Q912.0345,133.31219,907.67886,138.05806Z"/>
  <path class="cls-1" d="M842.34009,118.27013q8.55061,10.27429,8.55156,34.62351v45.74082q0,8.68622-4.95577,13.02341a19.70915,19.70915,0,0,1-24.68164,0q-4.95624-4.33771-4.95577-13.02341V152.04677q0-8.46717-2.72091-11.85877-2.72374-3.38517-7.9683-3.38851a13.0535,13.0535,0,0,0-10.88269,5.2941q-4.08136,5.29565-4.08183,14.61174v41.92913q0,8.68622-4.85856,13.02341-4.86,4.34388-12.438,4.34182a18.04425,18.04425,0,0,1-12.34082-4.34182q-4.95483-4.33771-4.95577-13.02341V152.04677q0-8.46717-2.72-11.85877-2.72515-3.38517-7.9683-3.38851a12.79278,12.79278,0,0,0-10.78642,5.2941q-3.9851,5.29565-3.98368,14.61174v41.92913q0,8.68622-4.95577,13.02341a19.70915,19.70915,0,0,1-24.68164,0Q695.99953,207.32016,696,198.63446v-73.27q0-8.25892,5.15019-12.60023a18.52675,18.52675,0,0,1,12.34082-4.34079,16.8563,16.8563,0,0,1,11.36873,3.91762q4.5641,3.92044,4.76135,11.32915,9.52035-15.66866,29.15137-15.67046,20.79328,0,27.79139,18.42344a37.07421,37.07421,0,0,1,13.02128-13.4471,34.76677,34.76677,0,0,1,18.46216-4.97633Q833.78948,107.9997,842.34009,118.27013Z"/>
  <path id="dot" class="cls-1" d="M647.12966,210.80367a18.00264,18.00264,0,0,1,12.96319-30.804,17.23959,17.23959,0,0,1,12.7775,5.196,18.54462,18.54462,0,0,1,0,25.608,17.22931,17.22931,0,0,1-12.7775,5.196A17.44624,17.44624,0,0,1,647.12966,210.80367Z"/>
  <path class="cls-1" d="M593.15731,211.50131q-5.1578-4.49413-5.15731-13.493V81.21008q0-8.99385,5.15731-13.60278a20.20192,20.20192,0,0,1,25.68538,0Q623.999,72.21489,624,81.21008V198.00827q0,8.99944-5.15731,13.493a20.58184,20.58184,0,0,1-25.68538,0Z"/>
  <path class="cls-1" d="M539.15731,211.50668q-5.1578-4.48876-5.15731-13.47692V125.9997q0-8.9831,5.15731-13.47745a20.60489,20.60489,0,0,1,25.68538,0Q569.999,117.01659,570,125.9997v72.03007q0,8.98869-5.15731,13.47692a20.60108,20.60108,0,0,1-25.68538,0Z"/>
  <path id="dot-2" data-name="dot" class="cls-1" d="M539.12966,93.80367A17.50066,17.50066,0,0,1,534,80.99925,17.64318,17.64318,0,0,1,552.09285,62.9997a17.23959,17.23959,0,0,1,12.7775,5.196A17.523,17.523,0,0,1,570,80.99925a17.515,17.515,0,0,1-5.12966,12.80443,17.22931,17.22931,0,0,1-12.7775,5.196A17.44624,17.44624,0,0,1,539.12966,93.80367Z"/>
  <path class="cls-1" d="M505.69572,119.4957Q515.99862,130.9953,516,154.40526v44.0869q0,8.01929-4.25374,12.5506-4.2542,4.539-11.81646,4.53592a14.77668,14.77668,0,0,1-10.87169-4.21939q-4.25282-4.21631-4.632-11.391a22.9131,22.9131,0,0,1-8.88576,11.81305A26.044,26.044,0,0,1,460.604,215.9997a35.107,35.107,0,0,1-17.39324-4.32387,31.56257,31.56257,0,0,1-12.19473-12.023,34.16938,34.16938,0,0,1-4.44288-17.403q0-11.17845,5.19851-17.82406,5.199-6.64561,16.543-9.59836,11.34407-2.95173,30.62914-2.95326h5.10394v-2.53122q0-7.38008-3.02435-10.65141-3.02711-3.26826-10.20971-3.26979-7.75507,0-22.68723,5.90653a21.09082,21.09082,0,0,1-7.37358,1.68714,8.97176,8.97176,0,0,1-7.56272-3.79683q-2.83567-3.79683-2.83613-9.91387a15.09384,15.09384,0,0,1,1.70131-7.59367,15.42866,15.42866,0,0,1,5.48313-5.274,61.38866,61.38866,0,0,1,16.63761-6.117,87.0404,87.0404,0,0,1,19.66288-2.3202Q495.39236,107.9997,505.69572,119.4957Zm-25.9962,66.02382q4.34785-5.37949,4.34831-13.81672v-2.53122h-3.02435q-12.10154,0-17.205,2.42571a8.34752,8.34752,0,0,0-5.10486,8.12122,11.7902,11.7902,0,0,0,2.74156,8.01571,8.93964,8.93964,0,0,0,7.08987,3.16428A13.71121,13.71121,0,0,0,479.69951,185.51952Z"/>
  <path class="cls-1" d="M349.3487,213.89051a49.17012,49.17012,0,0,1-16.30808-6.74958,10.06642,10.06642,0,0,1-4.42926-5.06244A19.30707,19.30707,0,0,1,327,194.06278a14.66355,14.66355,0,0,1,2.9196-9.38734,9.00141,9.00141,0,0,1,7.34886-3.69081,20.76082,20.76082,0,0,1,5.63777.73755,51.42469,51.42469,0,0,1,6.44247,2.42571q6.44149,2.32481,11.37626,3.58632a51.84166,51.84166,0,0,0,12.58379,1.26612,19.1587,19.1587,0,0,0,8.55737-1.58265q3.11808-1.58265,3.12-4.53489a4.4201,4.4201,0,0,0-1.50966-3.58632,16.311,16.311,0,0,0-5.73848-2.42571q-4.22833-1.157-14.29487-3.26979-17.92237-3.58325-25.87255-10.86346-7.95653-7.27714-7.95311-20.56631a28.84164,28.84164,0,0,1,5.73848-17.50753,38.185,38.185,0,0,1,15.80552-12.23458,55.40979,55.40979,0,0,1,22.55011-4.42938,67.07386,67.07386,0,0,1,17.61731,2.3202,55.15793,55.15793,0,0,1,15.20126,6.53908q6.2391,3.79683,6.242,12.23458a15.998,15.998,0,0,1-3.02031,9.91438,9.03932,9.03932,0,0,1-7.44957,4.00734q-5.23885,0-12.48308-3.58581a64.91325,64.91325,0,0,0-8.55737-3.4803,29.65655,29.65655,0,0,0-8.75879-1.1601,16.1634,16.1634,0,0,0-7.8524,1.58214,4.955,4.955,0,0,0-2.81791,4.53489q0,3.37582,3.92571,5.27346,3.9262,1.89765,15.6041,4.21836,19.52688,3.5894,27.58363,10.86346,8.0504,7.27714,8.05381,20.98835,0,15.40091-12.18094,24.57467-12.18486,9.17632-32.71786,9.1753A104.41883,104.41883,0,0,1,349.3487,213.89051Z"/>
</svg>
