<svg width="1660" height="287.99939" xmlns="http://www.w3.org/2000/svg">
 <title>logo_white</title>

 <g>
  <title>Layer 1</title>
  <path id="svg_1" fill="#fff" d="m284.99708,237.53918c-20.71778,0 -31.68565,8.79666 -40.50557,15.86983c-0.246,0.198 -0.474,0.378 -0.714,0.57a108.54641,108.54641 0 0 0 16.49983,-57.41339a12.00041,12.00041 0 0 0 -11.99987,-11.99987l-71.51925,0c19.6738,-13.70985 47.39351,-41.05682 47.39351,-86.35035c0,-68.71727 -63.80933,-96.14973 -66.5273,-97.283a12.00371,12.00371 0 0 0 -16.62582,11.06989l0,172.40744c0,0.04875 0.018,0.096 0.018,0.14475l-83.29713,0a12.00425,12.00425 0 0 0 -11.99987,11.99987a108.46589,108.46589 0 0 0 16.52983,57.43739c-0.252,-0.19875 -0.486,-0.38474 -0.744,-0.588c-8.81391,-7.06793 -19.78779,-15.86458 -40.50557,-15.86458a11.99987,11.99987 0 1 0 0,23.99975c12.28187,0 17.82581,4.4467 25.49373,10.59589c8.81391,7.06868 19.78779,15.86458 40.50557,15.86458a61.72194,61.72194 0 0 0 13.49983,-1.42272a0.07609,0.07609 0 0 0 0.036,-0.006c12.39587,-2.77122 20.12979,-8.97591 26.95171,-14.4471c7.65592,-6.14469 13.19387,-10.59064 25.45773,-10.59064c12.32987,0 17.87982,4.446 25.57174,10.60864c6.56393,5.25594 14.00985,11.15388 25.58372,14.0451a11.90843,11.90843 0 0 0 2.868,0.61874a61.46164,61.46164 0 0 0 12.02988,1.194c20.71778,0 31.68565,-8.79591 40.50557,-15.87058c7.66792,-6.14994 13.21186,-10.59589 25.49373,-10.59589a11.99687,11.99687 0 1 0 0,-23.99374m-119.99873,-204.64585c15.16184,11.08189 35.14765,32.00366 35.14765,65.3153s-19.98579,54.22818 -35.14763,65.31007l-0.00002,-130.62537zm-12.05987,204.64584c-20.69977,0 -31.66766,8.79666 -40.47557,15.86983c-4.22395,3.39071 -7.79392,6.25193 -12.18587,8.14266a84.40115,84.40115 0 0 1 -29.69969,-52.99144l164.84225,0a84.48058,84.48058 0 0 1 -29.66369,52.99744c-4.416,-1.878 -8.00391,-4.75195 -12.24586,-8.14866c-8.8319,-7.06718 -19.82379,-15.86983 -40.57157,-15.86983z" class="cls-1"/>
  <path id="svg_2" fill="#fff" d="m39.99558,104.93533a12.00041,12.00041 0 0 0 11.99987,11.99987l52.46944,0a11.99988,11.99988 0 0 0 0,-23.99976l-52.46944,0a12.00042,12.00042 0 0 0 -11.99988,11.99988" class="cls-1"/>
  <path id="svg_3" fill="#fff" d="m104.46489,131.689l-39.32958,0a11.99987,11.99987 0 0 0 0,23.99975l39.32958,0a11.99987,11.99987 0 0 0 0,-23.99975" class="cls-1"/>
  <path id="svg_4" fill="#fff" d="m104.46489,76.24363a11.99987,11.99987 0 0 0 0,-23.99975l-26.18372,0a11.99987,11.99987 0 0 0 0,23.99975l26.18372,0" class="cls-1"/>
  <text transform="matrix(1 0 0 0.984457 0 0.346569)" stroke="null" font-style="normal" font-weight="normal" xml:space="preserve" text-anchor="start" font-family="'Calistoga'" font-size="198" stroke-width="0" id="svg_14" y="224.73016" x="320.33338" fill="#ffffff">Bilou Yachting</text>
 </g>
</svg>